<?xml version="1.0" standalone="no"?><!DOCTYPE svg PUBLIC "-//W3C//DTD SVG 1.1//EN" "http://www.w3.org/Graphics/SVG/1.1/DTD/svg11.dtd"><svg t="1568200944480" class="icon" viewBox="0 0 1024 1024" version="1.1" xmlns="http://www.w3.org/2000/svg" p-id="9117" xmlns:xlink="http://www.w3.org/1999/xlink" width="200" height="200"><defs><style type="text/css"></style></defs><path d="M641.1 452.3c-89.5-99.5-89.5-218.8-89.5-387.9C273 173.8 342.7 472.2 332.7 571.6c-69.6-59.6-89.5-198.9-89.5-198.9-79.5 39.8-119.3 139.3-119.3 218.8 4.3 205.3 172.6 369.2 377.9 368 204 4.7 373.2-156.9 377.8-360.8 0.1-2.4 0.1-4.8 0.1-7.2 0-119.4-89.5-179-89.5-338.2-90.9 22.1-153.4 105.5-149.1 199z" fill="#FF6B6A" p-id="9118"></path><path d="M491.8 551.7c129.3 49.7 99.5 189 99.5 228.7 20.7-26 34.3-56.8 39.8-89.5 31.5 23.3 50 60.3 49.7 99.5 0 93.4-75.7 169.1-169.1 169.1s-169-75.7-169-169c9.9-89.6 149.1-159.2 149.1-238.8z" fill="#FFA9B1" p-id="9119"></path></svg>