<?xml version="1.0" encoding="utf-8"?>
<svg version="1.1" xmlns:xlink="http://www.w3.org/1999/xlink" width="140px" height="141px" xmlns="http://www.w3.org/2000/svg">
  <g transform="matrix(1 0 0 1 -10 -13 )">
    <path d="M 10 13  L 150 13  L 150 154  L 10 154  L 10 13  " fill-rule="nonzero" fill="#cccccc" stroke="none" />
    <path d="M 20 23  L 140 23  L 140 144  L 20 144  L 20 23  " fill-rule="nonzero" fill="#ffffff" stroke="none" />
    <path d="M 93.3 55.15  C 87.42 55.15  82.8 50.53  82.8 44.65  C 82.8 38.77  87.42 34.15  93.3 34.15  C 99.18 34.15  103.8 38.77  103.8 44.65  C 103.8 50.53  99.18 55.15  93.3 55.15  " fill-rule="nonzero" fill="#cccccc" stroke="none" />
    <path d="M 24 141  L 24 78.3  L 52.25 49.8  L 91.8 72.6  L 114.4 66.9  L 137 72.6  L 137 141  L 24 141  " fill-rule="nonzero" fill="#169bd5" stroke="none" />
  </g>
</svg>