<?xml version="1.0" encoding="utf-8"?>
<svg version="1.1" xmlns:xlink="http://www.w3.org/1999/xlink" width="26px" height="26px" xmlns="http://www.w3.org/2000/svg">
  <g transform="matrix(1 0 0 1 -357 -75 )">
    <path d="M 370 78  C 375.6 78  380 82.4  380 88  C 380 93.6  375.6 98  370 98  C 364.4 98  360 93.6  360 88  C 360 82.4  364.4 78  370 78  Z " fill-rule="nonzero" fill="#ffffff" stroke="none" fill-opacity="0" />
    <path d="M 370 77  C 376.16 77  381 81.84  381 88  C 381 94.16  376.16 99  370 99  C 363.84 99  359 94.16  359 88  C 359 81.84  363.84 77  370 77  Z " stroke-width="4" stroke="#ffffff" fill="none" />
  </g>
</svg>