<?xml version="1.0" encoding="utf-8"?>
<svg version="1.1" xmlns:xlink="http://www.w3.org/1999/xlink" width="10px" height="10px" xmlns="http://www.w3.org/2000/svg">
  <g transform="matrix(1 0 0 1 -144 -189 )">
    <path d="M 149 189  C 151.8 189  154 191.2  154 194  C 154 196.8  151.8 199  149 199  C 146.2 199  144 196.8  144 194  C 144 191.2  146.2 189  149 189  Z " fill-rule="nonzero" fill="#ffffff" stroke="none" />
    <path d="M 149 189.5  C 151.52 189.5  153.5 191.48  153.5 194  C 153.5 196.52  151.52 198.5  149 198.5  C 146.48 198.5  144.5 196.52  144.5 194  C 144.5 191.48  146.48 189.5  149 189.5  Z " stroke-width="1" stroke="#797979" fill="none" />
  </g>
</svg>