<?xml version="1.0" encoding="utf-8"?>
<svg version="1.1" xmlns:xlink="http://www.w3.org/1999/xlink" width="7px" height="8px" xmlns="http://www.w3.org/2000/svg">
  <g transform="matrix(1 0 0 1 -289 -62 )">
    <path d="M 6.76442307692308 2.86830497794581  C 6.92147435897436 2.89855072463768  7 2.97584541062802  7 3.10018903591682  C 7 3.17412308338584  6.96354166666667 3.2547784078975  6.890625 3.3421550094518  L 5.36358173076923 5.12665406427221  L 5.72536057692308 7.6471329552615  C 5.72816506410256 7.67065742491073  5.72956730769231 7.70426381012392  5.72956730769231 7.74795211090107  C 5.72956730769231 7.81852551984877  5.71484375 7.87817685360218  5.68539663461539 7.92690611216131  C 5.65594951923077 7.97563537072044  5.61318108974359 8  5.55709134615385 8  C 5.50380608974359 8  5.44771634615385 7.97983616887209  5.38882211538462 7.93950850661626  L 3.5 6.74984247006931  L 1.61117788461538 7.93950850661626  C 1.54947916666667 7.97983616887209  1.49338942307692 8  1.44290865384615 8  C 1.38401442307692 8  1.33984375 7.97563537072044  1.31039663461538 7.92690611216131  C 1.28094951923077 7.87817685360218  1.26622596153846 7.81852551984877  1.26622596153846 7.74795211090107  C 1.26622596153846 7.72778827977316  1.26903044871795 7.69418189455997  1.27463942307692 7.6471329552615  L 1.63641826923077 5.12665406427221  L 0.105168269230769 3.3421550094518  C 0.0350560897435897 3.25141776937618  0 3.17076244486452  0 3.10018903591682  C 0 2.97584541062802  0.078525641025641 2.89855072463768  0.235576923076923 2.86830497794581  L 2.34735576923077 2.50031505986137  L 3.29387019230769 0.206679269061121  C 3.34715544871795 0.0688930896870401  3.41586538461538 0  3.5 0  C 3.58413461538462 0  3.65284455128205 0.0688930896870401  3.70612980769231 0.206679269061121  L 4.65264423076923 2.50031505986137  L 6.76442307692308 2.86830497794581  Z " fill-rule="nonzero" fill="#f59a23" stroke="none" transform="matrix(1 0 0 1 289 62 )" />
  </g>
</svg>