<?xml version="1.0" encoding="utf-8"?>
<svg version="1.1" xmlns:xlink="http://www.w3.org/1999/xlink" width="7px" height="8px" xmlns="http://www.w3.org/2000/svg">
  <g transform="matrix(1 0 0 1 -351 -62 )">
    <path d="M 4.78305288461539 4.89981096408318  L 4.98918269230769 4.66288594833018  L 6.0703125 3.40264650283554  L 4.57271634615385 3.14051669817265  L 4.29507211538462 3.09010712035287  L 4.16887019230769 2.78764965343415  L 3.5 1.16446124763705  L 3.5 6.01890359168242  L 3.74819711538462 6.17517328292376  L 5.0859375 7.02205419029616  L 4.83353365384615 5.23251417769376  L 4.78305288461539 4.89981096408318  Z M 6.99158653846154 3.04221802142407  C 7.01682692307692 3.13463558076034  6.98317307692308 3.23461457676959  6.890625 3.3421550094518  L 5.36358173076923 5.12665406427221  L 5.72536057692308 7.6471329552615  C 5.73938301282051 7.75803402646503  5.73096955128205 7.84457046838899  5.70012019230769 7.9067422810334  C 5.66927083333333 7.9689140936778  5.62159455128205 8  5.55709134615385 8  C 5.50941506410256 8  5.45332532051282 7.97983616887209  5.38882211538462 7.93950850661626  L 3.5 6.74984247006931  L 1.61117788461538 7.93950850661626  C 1.54667467948718 7.97983616887209  1.49058493589744 8  1.44290865384615 8  C 1.37840544871795 8  1.33072916666667 7.9689140936778  1.29987980769231 7.9067422810334  C 1.26903044871795 7.84457046838899  1.26061698717949 7.75803402646503  1.27463942307692 7.6471329552615  L 1.63641826923077 5.12665406427221  L 0.105168269230769 3.3421550094518  C 0.0154246794871795 3.23461457676959  -0.0168269230769231 3.13463558076034  0.00841346153846154 3.04221802142407  C 0.0336538461538462 2.9498004620878  0.109375 2.89182944759504  0.235576923076923 2.86830497794581  L 2.34735576923077 2.50031505986137  L 3.29387019230769 0.206679269061121  C 3.34995993589744 0.0688930896870401  3.41866987179487 0  3.5 0  C 3.57852564102564 0  3.64723557692308 0.0688930896870401  3.70612980769231 0.206679269061121  L 4.65264423076923 2.50031505986137  L 6.76442307692308 2.86830497794581  C 6.890625 2.89182944759504  6.96634615384616 2.9498004620878  6.99158653846154 3.04221802142407  Z " fill-rule="nonzero" fill="#f59a23" stroke="none" transform="matrix(1 0 0 1 351 62 )" />
  </g>
</svg>