<?xml version="1.0" encoding="utf-8"?>
<svg version="1.1" xmlns:xlink="http://www.w3.org/1999/xlink" width="141px" height="145px" xmlns="http://www.w3.org/2000/svg">
  <g transform="matrix(1 0 0 1 -11 -12 )">
    <path d="M 11 12  L 152 12  L 152 157  L 11 157  L 11 12  " fill-rule="nonzero" fill="#cccccc" stroke="none" />
    <path d="M 21 22  L 142 22  L 142 147  L 21 147  L 21 22  " fill-rule="nonzero" fill="#ffffff" stroke="none" />
    <path d="M 94.895 54.9  C 88.973 54.9  84.32 50.247  84.32 44.325  C 84.32 38.403  88.973 33.75  94.895 33.75  C 100.817 33.75  105.47 38.403  105.47 44.325  C 105.47 50.247  100.817 54.9  94.895 54.9  " fill-rule="nonzero" fill="#cccccc" stroke="none" />
    <path d="M 25 144  L 25 79.1  L 53.5 49.6  L 93.4 73.2  L 116.2 67.3  L 139 73.2  L 139 144  L 25 144  " fill-rule="nonzero" fill="#169bd5" stroke="none" />
  </g>
</svg>