<?xml version="1.0" encoding="utf-8"?>
<svg version="1.1" xmlns:xlink="http://www.w3.org/1999/xlink" width="12px" height="12px" viewBox="29 747.5  12 12" xmlns="http://www.w3.org/2000/svg">
  <path d="M 35 747.5  C 38.36 747.5  41 750.14  41 753.5  C 41 756.86  38.36 759.5  35 759.5  C 31.64 759.5  29 756.86  29 753.5  C 29 750.14  31.64 747.5  35 747.5  Z " fill-rule="nonzero" fill="#ffffff" stroke="none" />
  <path d="M 35 748  C 38.08 748  40.5 750.42  40.5 753.5  C 40.5 756.58  38.08 759  35 759  C 31.92 759  29.5 756.58  29.5 753.5  C 29.5 750.42  31.92 748  35 748  Z " stroke-width="1" stroke="#797979" fill="none" />
  <path d="M 35 756.5  C 33.32 756.5  32 755.18  32 753.5  C 32 751.82  33.32 750.5  35 750.5  C 36.68 750.5  38 751.82  38 753.5  C 38 755.18  36.68 756.5  35 756.5  " fill-rule="nonzero" fill="#797979" stroke="none" />
</svg>