<?xml version="1.0" encoding="utf-8"?>
<svg version="1.1" xmlns:xlink="http://www.w3.org/1999/xlink" width="23px" height="25px" xmlns="http://www.w3.org/2000/svg">
  <g transform="matrix(1 0 0 1 -350 -4 )">
    <path d="M 16.0198317307692 18.9662388392857  C 16.4068509615385 18.5151599702381  16.6003605769231 17.9501488095238  16.6003605769231 17.2712053571429  C 16.6003605769231 16.7410714285714  16.5750200320513 16.2434895833333  16.5243389423077 15.7784598214286  C 16.4736578525641 15.3134300595238  16.3769030448718 14.8460751488095  16.2340745192308 14.3763950892857  C 16.0912459935897 13.9067150297619  15.9092548076923 13.5067894345238  15.6881009615385 13.1766183035714  C 15.4669471153846 12.846447172619  15.1720753205128 12.5767299107143  14.8034855769231 12.3674665178571  C 14.4348958333333 12.158203125  14.015625 12.0535714285714  13.5456730769231 12.0535714285714  C 13.4903846153846 12.0907738095238  13.3360376602564 12.1861049107143  13.0826322115385 12.3395647321429  C 12.8292267628205 12.4930245535714  12.6334134615385 12.6069568452381  12.4951923076923 12.6813616071429  C 12.3569711538462 12.7557663690476  12.1703725961538 12.8487723214286  11.9353966346154 12.9603794642857  C 11.7004206730769 13.0719866071429  11.4746594551282 13.1510416666667  11.2581129807692 13.1975446428571  C 11.0415665064103 13.2440476190476  10.8273237179487 13.2672991071429  10.6153846153846 13.2672991071429  C 10.4034455128205 13.2672991071429  10.189202724359 13.2440476190476  9.97265625 13.1975446428571  C 9.75610977564103 13.1510416666667  9.53034855769231 13.0719866071429  9.29537259615385 12.9603794642857  C 9.06039663461538 12.8487723214286  8.87379807692308 12.7557663690476  8.73557692307692 12.6813616071429  C 8.59735576923077 12.6069568452381  8.40154246794872 12.4930245535714  8.14813701923077 12.3395647321429  C 7.89473157051282 12.1861049107143  7.74038461538462 12.0907738095238  7.68509615384615 12.0535714285714  C 7.21514423076923 12.0535714285714  6.7958733974359 12.158203125  6.42728365384615 12.3674665178571  C 6.05869391025641 12.5767299107143  5.76382211538462 12.846447172619  5.54266826923077 13.1766183035714  C 5.32151442307692 13.5067894345238  5.13952323717949 13.9067150297619  4.99669471153846 14.3763950892857  C 4.85386618589744 14.8460751488095  4.75711137820513 15.3134300595238  4.70643028846154 15.7784598214286  C 4.65574919871795 16.2434895833333  4.63040865384615 16.7410714285714  4.63040865384615 17.2712053571429  C 4.63040865384615 17.9501488095238  4.82391826923077 18.5151599702381  5.2109375 18.9662388392857  C 5.59795673076923 19.4173177083333  6.07251602564103 19.6428571428571  6.63461538461538 19.6428571428571  L 14.5961538461538 19.6428571428571  C 15.1582532051282 19.6428571428571  15.6328125 19.4173177083333  16.0198317307692 18.9662388392857  Z M 13.1517427884615 11.5373883928571  C 13.8566706730769 10.8305431547619  14.2091346153846 9.97953869047619  14.2091346153846 8.984375  C 14.2091346153846 7.97991071428572  13.8566706730769 7.12425595238095  13.1517427884615 6.41741071428572  C 12.4468149038462 5.71056547619047  11.6013621794872 5.35714285714286  10.6153846153846 5.35714285714286  C 9.62940705128205 5.35714285714286  8.78395432692308 5.71056547619047  8.07902644230769 6.41741071428572  C 7.37409855769231 7.12425595238095  7.02163461538462 7.97991071428572  7.02163461538462 8.984375  C 7.02163461538462 9.97953869047619  7.37409855769231 10.8305431547619  8.07902644230769 11.5373883928571  C 8.78395432692308 12.2442336309524  9.62940705128205 12.59765625  10.6153846153846 12.59765625  C 11.6013621794872 12.59765625  12.4468149038462 12.2442336309524  13.1517427884615 11.5373883928571  Z M 22.8756009615385 16.1969866071429  C 22.9585336538462 16.2806919642857  23 16.3876488095238  23 16.5178571428571  L 23 19.1964285714286  C 23 19.3266369047619  22.9585336538462 19.43359375  22.8756009615385 19.5172991071429  C 22.7926682692308 19.6010044642857  22.6866987179487 19.6428571428571  22.5576923076923 19.6428571428571  L 21.2307692307692 19.6428571428571  L 21.2307692307692 22.7678571428571  C 21.2307692307692 23.3816964285714  21.0142227564103 23.9071800595238  20.5811298076923 24.3443080357143  C 20.1480368589744 24.7814360119048  19.6274038461538 25  19.0192307692308 25  L 2.21153846153846 25  C 1.60336538461538 25  1.08273237179487 24.7814360119048  0.649639423076923 24.3443080357143  C 0.216546474358974 23.9071800595238  0 23.3816964285714  0 22.7678571428571  L 0 2.23214285714286  C 0 1.61830357142857  0.216546474358974 1.09281994047619  0.649639423076923 0.655691964285715  C 1.08273237179487 0.218563988095238  1.60336538461538 0  2.21153846153846 0  L 19.0192307692308 0  C 19.6274038461538 0  20.1480368589744 0.218563988095238  20.5811298076923 0.655691964285715  C 21.0142227564103 1.09281994047619  21.2307692307692 1.61830357142857  21.2307692307692 2.23214285714286  L 21.2307692307692 5.35714285714286  L 22.5576923076923 5.35714285714286  C 22.6866987179487 5.35714285714286  22.7926682692308 5.39899553571428  22.8756009615385 5.48270089285714  C 22.9585336538462 5.56640625  23 5.67336309523809  23 5.80357142857143  L 23 8.48214285714286  C 23 8.61235119047619  22.9585336538462 8.71930803571428  22.8756009615385 8.80301339285714  C 22.7926682692308 8.88671875  22.6866987179487 8.92857142857143  22.5576923076923 8.92857142857143  L 21.2307692307692 8.92857142857143  L 21.2307692307692 10.7142857142857  L 22.5576923076923 10.7142857142857  C 22.6866987179487 10.7142857142857  22.7926682692308 10.7561383928571  22.8756009615385 10.83984375  C 22.9585336538462 10.9235491071429  23 11.030505952381  23 11.1607142857143  L 23 13.8392857142857  C 23 13.969494047619  22.9585336538462 14.0764508928571  22.8756009615385 14.16015625  C 22.7926682692308 14.2438616071429  22.6866987179487 14.2857142857143  22.5576923076923 14.2857142857143  L 21.2307692307692 14.2857142857143  L 21.2307692307692 16.0714285714286  L 22.5576923076923 16.0714285714286  C 22.6866987179487 16.0714285714286  22.7926682692308 16.11328125  22.8756009615385 16.1969866071429  Z " fill-rule="nonzero" fill="#000000" stroke="none" transform="matrix(1 0 0 1 350 4 )" />
  </g>
</svg>