<?xml version="1.0" encoding="utf-8"?>
<svg version="1.1" xmlns:xlink="http://www.w3.org/1999/xlink" width="12px" height="12px" viewBox="49 664  12 12" xmlns="http://www.w3.org/2000/svg">
  <path d="M 55 664  C 58.36 664  61 666.64  61 670  C 61 673.36  58.36 676  55 676  C 51.64 676  49 673.36  49 670  C 49 666.64  51.64 664  55 664  Z " fill-rule="nonzero" fill="#ffffff" stroke="none" />
  <path d="M 55 664.5  C 58.08 664.5  60.5 666.92  60.5 670  C 60.5 673.08  58.08 675.5  55 675.5  C 51.92 675.5  49.5 673.08  49.5 670  C 49.5 666.92  51.92 664.5  55 664.5  Z " stroke-width="1" stroke="#797979" fill="none" />
  <path d="M 55 673  C 53.32 673  52 671.68  52 670  C 52 668.32  53.32 667  55 667  C 56.68 667  58 668.32  58 670  C 58 671.68  56.68 673  55 673  " fill-rule="nonzero" fill="#797979" stroke="none" />
</svg>