<?xml version="1.0" encoding="utf-8"?>
<svg version="1.1" xmlns:xlink="http://www.w3.org/1999/xlink" width="15px" height="35px" xmlns="http://www.w3.org/2000/svg">
  <g transform="matrix(1 0 0 1 -48 -81 )">
    <path d="M 14.7422680412371 2.10420841683367  C 14.914089347079 2.3380093520374  15 2.60688042752171  15 2.91082164328657  C 15 3.21476285905143  14.914089347079 3.48363393453574  14.7422680412371 3.71743486973948  L 4.61340206185567 17.5  L 14.7422680412371 31.2825651302605  C 14.914089347079 31.5163660654643  15 31.7852371409486  15 32.0891783567134  C 15 32.3931195724783  14.914089347079 32.6619906479626  14.7422680412371 32.8957915831663  L 13.4536082474227 34.6492985971944  C 13.2817869415808 34.8830995323981  13.0841924398625 35  12.860824742268 35  C 12.6374570446735 35  12.4398625429553 34.8830995323981  12.2680412371134 34.6492985971944  L 0.257731958762887 18.3066132264529  C 0.0859106529209623 18.0728122912492  0 17.8039412157649  0 17.5  C 0 17.1960587842351  0.0859106529209623 16.9271877087508  0.257731958762887 16.6933867735471  L 12.2680412371134 0.350701402805612  C 12.4398625429553 0.116900467601869  12.6374570446735 0  12.860824742268 0  C 13.0841924398625 0  13.2817869415808 0.116900467601869  13.4536082474227 0.350701402805612  L 14.7422680412371 2.10420841683367  Z " fill-rule="nonzero" fill="#aaaaaa" stroke="none" fill-opacity="0.56078431372549" transform="matrix(1 0 0 1 48 81 )" />
  </g>
</svg>