<?xml version="1.0" encoding="utf-8"?>
<svg version="1.1" xmlns:xlink="http://www.w3.org/1999/xlink" width="6px" height="6px" xmlns="http://www.w3.org/2000/svg">
  <g transform="matrix(1 0 0 1 -322 -95 )">
    <path d="M 325 95  C 326.68 95  328 96.32  328 98  C 328 99.68  326.68 101  325 101  C 323.32 101  322 99.68  322 98  C 322 96.32  323.32 95  325 95  Z " fill-rule="nonzero" fill="#ffffff" stroke="none" />
    <path d="M 325 95.5  C 326.4 95.5  327.5 96.6  327.5 98  C 327.5 99.4  326.4 100.5  325 100.5  C 323.6 100.5  322.5 99.4  322.5 98  C 322.5 96.6  323.6 95.5  325 95.5  Z " stroke-width="1" stroke="#ffffff" fill="none" />
  </g>
</svg>