<?xml version="1.0" encoding="utf-8"?>
<svg version="1.1" xmlns:xlink="http://www.w3.org/1999/xlink" width="12px" height="12px" xmlns="http://www.w3.org/2000/svg">
  <g transform="matrix(1 0 0 1 -377 -93 )">
    <path d="M 383 93  C 386.36 93  389 95.64  389 99  C 389 102.36  386.36 105  383 105  C 379.64 105  377 102.36  377 99  C 377 95.64  379.64 93  383 93  Z " fill-rule="nonzero" fill="#ffffff" stroke="none" />
    <path d="M 383 93.5  C 386.08 93.5  388.5 95.92  388.5 99  C 388.5 102.08  386.08 104.5  383 104.5  C 379.92 104.5  377.5 102.08  377.5 99  C 377.5 95.92  379.92 93.5  383 93.5  Z " stroke-width="1" stroke="#ffffff" fill="none" />
  </g>
</svg>