<?xml version="1.0" encoding="utf-8"?>
<svg version="1.1" xmlns:xlink="http://www.w3.org/1999/xlink" width="369px" height="133px" xmlns="http://www.w3.org/2000/svg">
  <g>
    <path d="M 0 0  L 369 0  L 369 133  L 0 133  L 0 0  " fill-rule="nonzero" fill="#cccccc" stroke="none" />
    <path d="M 9 9  L 360 9  L 360 124  L 9 124  L 9 9  " fill-rule="nonzero" fill="#ffffff" stroke="none" />
    <path d="M 201.855 39.9  C 196.269 39.9  191.88 35.511  191.88 29.925  C 191.88 24.339  196.269 19.95  201.855 19.95  C 207.441 19.95  211.83 24.339  211.83 29.925  C 211.83 35.511  207.441 39.9  201.855 39.9  " fill-rule="nonzero" fill="#cccccc" stroke="none" />
    <path d="M 13 121  L 13 61.6  L 99 34.6  L 219.4 97.6439024390244  L 288.2 50.8  L 357 97.6439024390244  L 357 121  L 13 121  " fill-rule="nonzero" fill="#169bd5" stroke="none" />
  </g>
</svg>