<?xml version="1.0" encoding="utf-8"?>
<svg version="1.1" xmlns:xlink="http://www.w3.org/1999/xlink" width="129px" height="133px" xmlns="http://www.w3.org/2000/svg">
  <g>
    <path d="M 0 0  L 129 0  L 129 133  L 0 133  L 0 0  " fill-rule="nonzero" fill="#cccccc" stroke="none" />
    <path d="M 9 9  L 120 9  L 120 124  L 9 124  L 9 9  " fill-rule="nonzero" fill="#ffffff" stroke="none" />
    <path d="M 76.755 39.3  C 71.337 39.3  67.08 35.043  67.08 29.625  C 67.08 24.207  71.337 19.95  76.755 19.95  C 82.173 19.95  86.43 24.207  86.43 29.625  C 86.43 35.043  82.173 39.3  76.755 39.3  " fill-rule="nonzero" fill="#cccccc" stroke="none" />
    <path d="M 12 121  L 12 61.05  L 38.25 33.8  L 75 55.6  L 96 50.15  L 117 55.6  L 117 121  L 12 121  " fill-rule="nonzero" fill="#169bd5" stroke="none" />
  </g>
</svg>