<?xml version="1.0" encoding="utf-8"?>
<svg version="1.1" xmlns:xlink="http://www.w3.org/1999/xlink" width="12px" height="27px" xmlns="http://www.w3.org/2000/svg">
  <g transform="matrix(1 0 0 1 -38 -82 )">
    <path d="M 11.7938144329897 1.62324649298597  C 11.9312714776632 1.80360721442885  12 2.01102204408817  12 2.24549098196393  C 12 2.47995991983968  11.9312714776632 2.687374749499  11.7938144329897 2.86773547094188  L 3.69072164948454 13.5  L 11.7938144329897 24.1322645290581  C 11.9312714776632 24.312625250501  12 24.5200400801603  12 24.7545090180361  C 12 24.9889779559118  11.9312714776632 25.1963927855711  11.7938144329897 25.376753507014  L 10.7628865979381 26.7294589178357  C 10.6254295532646 26.9098196392786  10.46735395189 27  10.2886597938144 27  C 10.1099656357388 27  9.95189003436426 26.9098196392786  9.81443298969072 26.7294589178357  L 0.206185567010309 14.122244488978  C 0.0687285223367698 13.9418837675351  0 13.7344689378758  0 13.5  C 0 13.2655310621242  0.0687285223367698 13.0581162324649  0.206185567010309 12.877755511022  L 9.81443298969072 0.270541082164329  C 9.95189003436426 0.090180360721442  10.1099656357388 0  10.2886597938144 0  C 10.46735395189 0  10.6254295532646 0.090180360721442  10.7628865979381 0.270541082164329  L 11.7938144329897 1.62324649298597  Z " fill-rule="nonzero" fill="#000000" stroke="none" transform="matrix(1 0 0 1 38 82 )" />
  </g>
</svg>