<?xml version="1.0" encoding="utf-8"?>
<svg version="1.1" xmlns:xlink="http://www.w3.org/1999/xlink" width="16px" height="35px" xmlns="http://www.w3.org/2000/svg">
  <g transform="matrix(1 0 0 1 -35 -70 )">
    <path d="M 15.7250859106529 2.10420841683367  C 15.9083619702176 2.3380093520374  16 2.60688042752171  16 2.91082164328657  C 16 3.21476285905143  15.9083619702176 3.48363393453574  15.7250859106529 3.71743486973948  L 4.92096219931272 17.5  L 15.7250859106529 31.2825651302605  C 15.9083619702176 31.5163660654643  16 31.7852371409486  16 32.0891783567134  C 16 32.3931195724783  15.9083619702176 32.6619906479626  15.7250859106529 32.8957915831663  L 14.3505154639175 34.6492985971944  C 14.1672394043528 34.8830995323981  13.9564719358534 35  13.7182130584192 35  C 13.4799541809851 35  13.2691867124857 34.8830995323981  13.085910652921 34.6492985971944  L 0.274914089347079 18.3066132264529  C 0.0916380297823597 18.0728122912492  0 17.8039412157649  0 17.5  C 0 17.1960587842351  0.0916380297823597 16.9271877087508  0.274914089347079 16.6933867735471  L 13.085910652921 0.350701402805612  C 13.2691867124857 0.116900467601869  13.4799541809851 0  13.7182130584192 0  C 13.9564719358534 0  14.1672394043528 0.116900467601869  14.3505154639175 0.350701402805612  L 15.7250859106529 2.10420841683367  Z " fill-rule="nonzero" fill="#aaaaaa" stroke="none" fill-opacity="0.56078431372549" transform="matrix(1 0 0 1 35 70 )" />
  </g>
</svg>