<?xml version="1.0" encoding="utf-8"?>
<svg version="1.1" xmlns:xlink="http://www.w3.org/1999/xlink" width="67px" height="59px" xmlns="http://www.w3.org/2000/svg">
  <g transform="matrix(1 0 0 1 -120 -159 )">
    <path d="M 120 159  L 187 159  L 187 218  L 120 218  L 120 159  " fill-rule="nonzero" fill="#cccccc" stroke="none" />
    <path d="M 124 163  L 183 163  L 183 214  L 124 214  L 124 163  " fill-rule="nonzero" fill="#ffffff" stroke="none" />
    <path d="M 159.265 176.7  C 156.787 176.7  154.84 174.753  154.84 172.275  C 154.84 169.797  156.787 167.85  159.265 167.85  C 161.743 167.85  163.69 169.797  163.69 172.275  C 163.69 174.753  161.743 176.7  159.265 176.7  " fill-rule="nonzero" fill="#cccccc" stroke="none" />
    <path d="M 126 213  L 126 186.6  L 140 174.6  L 159.6 187.638805970149  L 170.8 181.8  L 182 187.638805970149  L 182 213  L 126 213  " fill-rule="nonzero" fill="#169bd5" stroke="none" />
  </g>
</svg>