<?xml version="1.0" encoding="utf-8"?>
<svg version="1.1" xmlns:xlink="http://www.w3.org/1999/xlink" width="82px" height="30px" xmlns="http://www.w3.org/2000/svg">
  <defs>
    <mask fill="white" id="clip1">
      <path d="M 0 27  L 0 15.2820512820499  L 0 3  C 0 1.32000000000005  1.31999999999999 0  3 0  L 79 0  C 80.68 0  82 1.32000000000005  82 3  L 82 27  C 82 28.68  80.68 30  79 30  L 3 30  C 1.31999999999999 30  0 28.68  0 27  Z " fill-rule="evenodd" />
    </mask>
  </defs>
  <g transform="matrix(1 0 0 1 -241 -717 )">
    <path d="M 0 27  L 0 15.2820512820499  L 0 3  C 0 1.32000000000005  1.31999999999999 0  3 0  L 79 0  C 80.68 0  82 1.32000000000005  82 3  L 82 27  C 82 28.68  80.68 30  79 30  L 3 30  C 1.31999999999999 30  0 28.68  0 27  Z " fill-rule="nonzero" fill="#f8f8f8" stroke="none" transform="matrix(1 0 0 1 241 717 )" />
    <path d="M 0 27  L 0 15.2820512820499  L 0 3  C 0 1.32000000000005  1.31999999999999 0  3 0  L 79 0  C 80.68 0  82 1.32000000000005  82 3  L 82 27  C 82 28.68  80.68 30  79 30  L 3 30  C 1.31999999999999 30  0 28.68  0 27  Z " stroke-width="2" stroke="#dfdfdf" fill="none" transform="matrix(1 0 0 1 241 717 )" mask="url(#clip1)" />
  </g>
</svg>