<?xml version="1.0" encoding="utf-8"?>
<svg version="1.1" xmlns:xlink="http://www.w3.org/1999/xlink" width="369px" height="668px" xmlns="http://www.w3.org/2000/svg">
  <g transform="matrix(1 0 0 1 -32 -95 )">
    <path d="M 32 95  L 401 95  L 401 763  L 32 763  L 32 95  " fill-rule="nonzero" fill="#cccccc" stroke="none" />
    <path d="M 58 121  L 375 121  L 375 737  L 58 737  L 58 121  " fill-rule="nonzero" fill="#ffffff" stroke="none" />
    <path d="M 251.555 250.55  C 236.057 250.55  223.88 238.373  223.88 222.875  C 223.88 207.377  236.057 195.2  251.555 195.2  C 267.053 195.2  279.23 207.377  279.23 222.875  C 279.23 238.373  267.053 250.55  251.555 250.55  " fill-rule="nonzero" fill="#cccccc" stroke="none" />
    <path d="M 67 728  L 67 399.1  L 141.75 249.6  L 246.4 369.2  L 306.2 339.3  L 366 369.2  L 366 728  L 67 728  " fill-rule="nonzero" fill="#169bd5" stroke="none" />
  </g>
</svg>